<svg xmlns="http://www.w3.org/2000/svg" xmlns:xlink="http://www.w3.org/1999/xlink" xmlns:lucid="lucid" width="1282.33" height="1662"><g transform="translate(-58.66942148760336 -39)" lucid:page-tab-id="YGcM5DNywbTK"><path d="M0 0h1360v1760H0z" fill="#fff"/><g filter="url(#a)"><path d="M752.3 60c19.36 0 35.07 17.9 35.07 40s-15.7 40-35.08 40H647.04c-19.38 0-35.08-17.9-35.08-40s15.7-40 35.08-40z" stroke="#3d4752" stroke-width="4" fill="#c7e8ac"/><use xlink:href="#b" transform="matrix(1,0,0,1,626.9693166505963,75) translate(22.925925925925924 30.333333333333336)"/><use xlink:href="#c" transform="matrix(1,0,0,1,626.9693166505963,75) translate(83.14814814814815 30.333333333333336)"/></g><g filter="url(#d)"><path d="M580 168a8 8 0 0 1 8-8h223.34a8 8 0 0 1 8 8v104a8 8 0 0 1-8 8H588a8 8 0 0 1-8-8z" stroke="#3d4752" stroke-width="4" fill="#fff"/><use xlink:href="#e" transform="matrix(1,0,0,1,595,175) translate(18.740740740740733 32.733333333333334)"/><use xlink:href="#f" transform="matrix(1,0,0,1,595,175) translate(77.4074074074074 32.733333333333334)"/><use xlink:href="#g" transform="matrix(1,0,0,1,595,175) translate(146.88888888888889 32.733333333333334)"/><use xlink:href="#h" transform="matrix(1,0,0,1,595,175) translate(47.37037037037037 67.93333333333334)"/></g><g filter="url(#d)"><path d="M580 308a8 8 0 0 1 8-8h223.34a8 8 0 0 1 8 8v104a8 8 0 0 1-8 8H588a8 8 0 0 1-8-8z" stroke="#3d4752" stroke-width="4" fill="#fff"/><use xlink:href="#e" transform="matrix(1,0,0,1,595,315) translate(10.185185185185176 32.733333333333334)"/><use xlink:href="#i" transform="matrix(1,0,0,1,595,315) translate(68.85185185185185 32.733333333333334)"/><use xlink:href="#j" transform="matrix(1,0,0,1,595,315) translate(130.33333333333331 32.733333333333334)"/><use xlink:href="#k" transform="matrix(1,0,0,1,595,315) translate(24.444444444444443 67.93333333333334)"/><use xlink:href="#l" transform="matrix(1,0,0,1,595,315) translate(147.11111111111111 67.93333333333334)"/></g><g filter="url(#m)"><path d="M580 454.2a8 8 0 0 1 8-8h223.34a8 8 0 0 1 8 8v151.6a8 8 0 0 1-8 8H588a8 8 0 0 1-8-8z" stroke="#3d4752" stroke-width="4" fill="#fff"/><use xlink:href="#n" transform="matrix(1,0,0,1,595,461.2) translate(59.925925925925924 21.53333333333334)"/><use xlink:href="#o" transform="matrix(1,0,0,1,595,461.2) translate(15.629629629629619 56.73333333333334)"/><use xlink:href="#p" transform="matrix(1,0,0,1,595,461.2) translate(46.629629629629626 91.93333333333334)"/><use xlink:href="#q" transform="matrix(1,0,0,1,595,461.2) translate(136.77777777777777 91.93333333333334)"/><use xlink:href="#r" transform="matrix(1,0,0,1,595,461.2) translate(45.14814814814814 127.13333333333335)"/></g><g filter="url(#s)"><path d="M428 80c17.67 0 32 17.9 32 40s-14.33 40-32 40h-96c-17.67 0-32-17.9-32-40s14.33-40 32-40z" stroke="#3d4752" stroke-width="4" fill="#f5b5c8"/><use xlink:href="#t" transform="matrix(1,0,0,1,305,85) translate(18.29629629629629 22.733333333333334)"/><use xlink:href="#u" transform="matrix(1,0,0,1,305,85) translate(78.51851851851852 22.733333333333334)"/><use xlink:href="#v" transform="matrix(1,0,0,1,305,85) translate(21.740740740740733 57.93333333333334)"/></g><path d="M464 120h66V82.9h60.43" stroke="#494949" stroke-width="4" fill="none"/><path d="M464.05 122h-2.17l.12-1.97-.07-2.03h2.12z" stroke="#494949" stroke-width=".05" fill="#494949"/><path d="M606.7 82.9l-14.27 4.64v-9.27z" stroke="#494949" stroke-width="4" fill="#494949"/><path d="M607.97 100H560v39.16h-79.04" stroke="#494949" stroke-width="4" fill="none"/><path d="M609.97 99.97l.07 2.03h-2.12v-4h2.17z" stroke="#494949" stroke-width=".05" fill="#494949"/><path d="M464.7 139.16l14.26-4.64v9.27z" stroke="#494949" stroke-width="4" fill="#494949"/><g filter="url(#d)"><path d="M580 648a8 8 0 0 1 8-8h223.34a8 8 0 0 1 8 8v104a8 8 0 0 1-8 8H588a8 8 0 0 1-8-8z" stroke="#3d4752" stroke-width="4" fill="#fff"/><use xlink:href="#w" transform="matrix(1,0,0,1,595,655) translate(14.074074074074076 32.733333333333334)"/><use xlink:href="#x" transform="matrix(1,0,0,1,595,655) translate(111.77777777777779 32.733333333333334)"/><use xlink:href="#p" transform="matrix(1,0,0,1,595,655) translate(9.592592592592581 67.93333333333334)"/><use xlink:href="#y" transform="matrix(1,0,0,1,595,655) translate(99.74074074074073 67.93333333333334)"/></g><path d="M823.34 530h29.34" stroke="#494949" stroke-width="4" fill="none"/><path d="M823.4 532h-2.06v-4h2.05z" stroke="#494949" stroke-width=".05" fill="#494949"/><path d="M868.94 530l-14.26 4.63v-9.26z" stroke="#494949" stroke-width="4" fill="#494949"/><g filter="url(#z)"><path d="M916.42 570c-21.54 0-39-17.9-39-40 0-17.67 10.56-32.58 26.95-38.04C903.42 440 968.42 430 994.42 450c13-30 78-20 78 10 39-10 78 30 52 80 26 40 0 90-52 70-13 26-65 26-78 0-26 20-78 10-78-40z" stroke="#3d4752" stroke-width="4" fill="#fff"/><use xlink:href="#A" transform="matrix(1,0,0,1,882.4173553719008,435) translate(18.518518518518505 82.73333333333333)"/><use xlink:href="#B" transform="matrix(1,0,0,1,882.4173553719008,435) translate(110.22222222222221 82.73333333333333)"/><use xlink:href="#C" transform="matrix(1,0,0,1,882.4173553719008,435) translate(181.25925925925927 82.73333333333333)"/><use xlink:href="#D" transform="matrix(1,0,0,1,882.4173553719008,435) translate(27.370370370370367 117.93333333333334)"/><use xlink:href="#E" transform="matrix(1,0,0,1,882.4173553719008,435) translate(83.51851851851852 117.93333333333334)"/><use xlink:href="#F" transform="matrix(1,0,0,1,882.4173553719008,435) translate(157.51851851851853 117.93333333333334)"/></g><g filter="url(#G)"><path d="M619.67 1059.92l160-19.92v120h-160z" stroke="#3d4752" stroke-width="4" fill="#ffeca9"/><use xlink:href="#H" transform="matrix(1,0,0,1,624.6694214876034,1065) translate(35.77777777777777 50.333333333333336)"/><use xlink:href="#I" transform="matrix(1,0,0,1,624.6694214876034,1065) translate(99.4074074074074 50.333333333333336)"/></g><path d="M699.67 764v9.96" stroke="#494949" stroke-width="4" fill="none"/><path d="M701.67 764.05h-4V762h4z" stroke="#494949" stroke-width=".05" fill="#494949"/><path d="M699.67 790.23l-4.64-14.27h9.27z" stroke="#494949" stroke-width="4" fill="#494949"/><path d="M699.67 1023.4v5.86" stroke="#494949" stroke-width="4" fill="none"/><path d="M699.67 1021.4l2-1.24v3.3h-4v-3.3z" stroke="#494949" stroke-width=".05" fill="#494949"/><path d="M699.67 1045.53l-4.64-14.27h9.27z" stroke="#494949" stroke-width="4" fill="#494949"/><g filter="url(#G)"><path d="M809.67 1179.92l160-19.92v120h-160z" stroke="#3d4752" stroke-width="4" fill="#ffeca9"/><use xlink:href="#H" transform="matrix(1,0,0,1,814.6694214876034,1185) translate(35.77777777777777 50.333333333333336)"/><use xlink:href="#I" transform="matrix(1,0,0,1,814.6694214876034,1185) translate(99.4074074074074 50.333333333333336)"/></g><path d="M891.67 1149.26h-4V1102h-27.14v-4h31.14zm-108-47.26v-4h22.12v4z" stroke="#c92d39" stroke-width=".05" fill="#c92d39"/><path d="M783.72 1102h-2.05v-4h2.05z" fill="#c92d39"/><path d="M783.75 1102.03h-2.1v-4.06h2.1zm-2.06-4v3.94h2v-3.94z" stroke="#c92d39" stroke-width=".05" fill="#c92d39"/><path d="M889.67 1165.53l-4.64-14.27h9.27z" fill="#c92d39"/><path d="M889.67 1172l-7.4-22.74h14.8zm-1.88-18.74l1.87 5.8 1.88-5.8z" stroke="#c92d39" stroke-width=".05" fill="#c92d39"/><use xlink:href="#J" transform="matrix(1,0,0,1,805.7900069986006,1084) translate(0.004999999999999005 21.333333333333336)"/><path d="M1082 1269.26h-4V1222h-25.3v-4h29.3zM973.67 1222v-4h24.3v4z" stroke="#c92d39" stroke-width=".05" fill="#c92d39"/><path d="M973.72 1222h-2.05v-4h2.05z" fill="#c92d39"/><path d="M973.75 1222.03h-2.1v-4.06h2.1zm-2.06-4v3.94h2v-3.94z" stroke="#c92d39" stroke-width=".05" fill="#c92d39"/><path d="M1080 1285.53l-4.63-14.27h9.27z" fill="#c92d39"/><path d="M1080 1292l-7.4-22.74h14.8zm-1.88-18.74l1.88 5.8 1.88-5.8z" stroke="#c92d39" stroke-width=".05" fill="#c92d39"/><use xlink:href="#J" transform="matrix(1,0,0,1,997.9629629629629,1204) translate(0.004999999999999005 21.333333333333336)"/><g filter="url(#G)"><path d="M1000 1299.92l160-19.92v120h-160z" stroke="#3d4752" stroke-width="4" fill="#ffeca9"/><use xlink:href="#H" transform="matrix(1,0,0,1,1005,1305) translate(35.77777777777777 50.333333333333336)"/><use xlink:href="#I" transform="matrix(1,0,0,1,1005,1305) translate(99.4074074074074 50.333333333333336)"/></g><g filter="url(#K)"><path d="M699.67 799.05l177.75 110-177.75 110-177.75-110z" stroke="#3d4752" stroke-width="4" fill="#fff"/><use xlink:href="#L" transform="matrix(1,0,0,1,526.9214876033059,804.05) translate(57.074074074074076 93.23333333333335)"/><use xlink:href="#M" transform="matrix(1,0,0,1,526.9214876033059,804.05) translate(167.5925925925926 93.23333333333335)"/><use xlink:href="#N" transform="matrix(1,0,0,1,526.9214876033059,804.05) translate(92.37037037037038 128.43333333333334)"/></g><path d="M1258.52 1516.54h-4V1342h-12.48v-4h16.48zM1164 1342v-4h23.3v4z" stroke="#c92d39" stroke-width=".05" fill="#c92d39"/><path d="M1164.05 1342H1162v-4h2.05z" fill="#c92d39"/><path d="M1164.08 1342.03h-2.1v-4.06h2.1zm-2.05-4v3.94h2v-3.94z" stroke="#c92d39" stroke-width=".05" fill="#c92d39"/><path d="M1256.52 1532.8l-4.63-14.26h9.26z" fill="#c92d39"/><path d="M1256.52 1539.28l-7.38-22.74h14.77zm-1.88-18.74l1.88 5.8 1.9-5.8z" stroke="#c92d39" stroke-width=".05" fill="#c92d39"/><use xlink:href="#J" transform="matrix(1,0,0,1,1187.2962962938736,1324) translate(0.004999999999999005 21.333333333333336)"/><g filter="url(#G)"><path d="M1184 1624c-13.26 0-24-10.74-24-24 0-10.6 6.5-19.55 16.58-22.83C1176 1546 1216 1540 1232 1552c8-18 48-12 48 6 24-6 48 18 32 48 16 24 0 54-32 42-8 15.6-40 15.6-48 0-16 12-48 6-48-24z" stroke="#ffdf71" stroke-width="4" fill="#ef8d22"/><use xlink:href="#O" transform="matrix(1,0,0,1,1165,1545) translate(34.29629629629629 60.333333333333336)"/></g><g filter="url(#G)"><path d="M429.67 1179.92l160-19.92v120h-160z" stroke="#3d4752" stroke-width="4" fill="#99d5ca"/><use xlink:href="#H" transform="matrix(1,0,0,1,434.66942148760336,1185) translate(35.77777777777777 50.333333333333336)"/><use xlink:href="#P" transform="matrix(1,0,0,1,434.66942148760336,1185) translate(99.4074074074074 50.333333333333336)"/></g><path d="M532.4 1102h-20.73v47.26h-4V1098h24.74zm83.27 0h-14.15v-4h14.15z" stroke="#7ab648" stroke-width=".05" fill="#7ab648"/><path d="M617.67 1102h-2.05v-4h2.05z" fill="#7ab648"/><path d="M617.7 1102.03h-2.1v-4.06h2.1zm-2.06-4v3.94h2v-3.94z" stroke="#7ab648" stroke-width=".05" fill="#7ab648"/><path d="M509.67 1165.53l-4.64-14.27h9.27z" fill="#7ab648"/><path d="M509.67 1172l-7.4-22.74h14.8zm-1.88-18.74l1.87 5.8 1.88-5.8z" stroke="#7ab648" stroke-width=".05" fill="#7ab648"/><use xlink:href="#Q" transform="matrix(1,0,0,1,532.4113865932048,1084) translate(0.005000000000002558 21.333333333333336)"/><g filter="url(#G)"><path d="M239.67 1299.92l160-19.92v120h-160z" stroke="#3d4752" stroke-width="4" fill="#b2d6ef"/><use xlink:href="#H" transform="matrix(1,0,0,1,244.66942148760336,1305) translate(35.77777777777777 50.333333333333336)"/><use xlink:href="#R" transform="matrix(1,0,0,1,244.66942148760336,1305) translate(99.4074074074074 50.333333333333336)"/></g><g filter="url(#S)"><path d="M159.67 1520l-18.8 54.1-57.3 1.18 45.67 34.6-16.6 54.84 47.03-32.72 47.02 32.72-16.6-54.83 45.65-34.62-57.27-1.17z" stroke="#fcc438" stroke-width="4" fill="#ffdf71"/><use xlink:href="#T" transform="matrix(1,0,0,1,84.66942148760336,1525) translate(49.148148148148145 80.33333333333334)"/></g><path d="M162.78 1342h-1.1v155.26h-4V1338h5.1zm72.9 0h-3.8v-4h3.8z" stroke="#7ab648" stroke-width=".05" fill="#7ab648"/><path d="M237.67 1342h-2.05v-4h2.05z" fill="#7ab648"/><path d="M237.7 1342.03h-2.1v-4.06h2.1zm-2.06-4v3.94h2v-3.94z" stroke="#7ab648" stroke-width=".05" fill="#7ab648"/><path d="M159.67 1513.53l-4.64-14.27h9.28z" fill="#7ab648"/><path d="M159.67 1520l-7.4-22.74h14.8zm-1.88-18.74l1.87 5.8 1.88-5.8z" stroke="#7ab648" stroke-width=".05" fill="#7ab648"/><use xlink:href="#Q" transform="matrix(1,0,0,1,162.77777777777777,1324) translate(0.005000000000002558 21.333333333333336)"/><path d="M341.44 1222h-19.77v47.26h-4V1218h23.77zm84.23 0h-15.1v-4h15.1z" stroke="#7ab648" stroke-width=".05" fill="#7ab648"/><path d="M427.67 1222h-2.05v-4h2.05z" fill="#7ab648"/><path d="M427.7 1222.03h-2.1v-4.06h2.1zm-2.06-4v3.94h2v-3.94z" stroke="#7ab648" stroke-width=".05" fill="#7ab648"/><path d="M319.67 1285.53l-4.64-14.27h9.28z" fill="#7ab648"/><path d="M319.67 1292l-7.4-22.74h14.8zm-1.88-18.74l1.87 5.8 1.88-5.8z" stroke="#7ab648" stroke-width=".05" fill="#7ab648"/><use xlink:href="#Q" transform="matrix(1,0,0,1,341.44444444444446,1204) translate(0.005000000000002558 21.333333333333336)"/><path d="M678.2 1268.13h-4V1222h-11v-4h15zM593.66 1222v-4h14.8v4z" stroke="#c92d39" stroke-width=".05" fill="#c92d39"/><path d="M593.72 1222h-2.05v-4h2.05z" fill="#c92d39"/><path d="M593.75 1222.03h-2.1v-4.06h2.1zm-2.06-4v3.94h2v-3.94z" stroke="#c92d39" stroke-width=".05" fill="#c92d39"/><path d="M676.2 1284.4l-4.65-14.27h9.27z" fill="#c92d39"/><path d="M676.2 1290.87l-7.4-22.74h14.77zm-1.9-18.74l1.9 5.8 1.87-5.8z" stroke="#c92d39" stroke-width=".05" fill="#c92d39"/><use xlink:href="#J" transform="matrix(1,0,0,1,608.4609956912211,1204) translate(0.004999999999999005 21.333333333333336)"/><g filter="url(#G)"><path d="M619.67 1299.92l160-19.92v120h-160z" stroke="#3d4752" stroke-width="4" fill="#99d5ca"/><use xlink:href="#H" transform="matrix(1,0,0,1,624.6694214876034,1305) translate(35.77777777777777 50.333333333333336)"/><use xlink:href="#P" transform="matrix(1,0,0,1,624.6694214876034,1305) translate(99.4074074074074 50.333333333333336)"/></g><path d="M732.1 1222h-2.54v39.73h-4V1218h6.55zm73.57 0h-4.45v-4h4.45z" stroke="#7ab648" stroke-width=".05" fill="#7ab648"/><path d="M807.67 1222h-2.05v-4h2.05z" fill="#7ab648"/><path d="M807.7 1222.03h-2.1v-4.06h2.1zm-2.06-4v3.94h2v-3.94z" stroke="#7ab648" stroke-width=".05" fill="#7ab648"/><path d="M727.56 1278l-4.63-14.27h9.27z" fill="#7ab648"/><path d="M727.56 1284.47l-7.4-22.74h14.8zm-1.88-18.74l1.88 5.8 1.88-5.8z" stroke="#7ab648" stroke-width=".05" fill="#7ab648"/><use xlink:href="#Q" transform="matrix(1,0,0,1,732.111110950506,1204) translate(0.005000000000002558 21.333333333333336)"/><path d="M494.13 1407.4h-4V1342h-16.5v-4h20.5zm-90.46-65.4v-4h15.22v4z" stroke="#c92d39" stroke-width=".05" fill="#c92d39"/><path d="M403.72 1342h-2.05v-4h2.05z" fill="#c92d39"/><path d="M403.75 1342.03h-2.1v-4.06h2.1zm-2.06-4v3.94h2v-3.94z" stroke="#c92d39" stroke-width=".05" fill="#c92d39"/><path d="M492.13 1423.66l-4.63-14.27h9.27z" fill="#c92d39"/><path d="M492.13 1430.13l-7.4-22.74h14.8zm-1.88-18.74l1.88 5.78 1.88-5.8z" stroke="#c92d39" stroke-width=".05" fill="#c92d39"/><use xlink:href="#J" transform="matrix(1,0,0,1,418.8858000494413,1324) translate(0.004999999999999005 21.333333333333336)"/><g filter="url(#G)"><path d="M429.67 1439.92l160-19.92v120h-160z" stroke="#3d4752" stroke-width="4" fill="#b2d6ef"/><use xlink:href="#H" transform="matrix(1,0,0,1,434.66942148760336,1445) translate(35.77777777777777 50.333333333333336)"/><use xlink:href="#R" transform="matrix(1,0,0,1,434.66942148760336,1445) translate(99.4074074074074 50.333333333333336)"/></g><path d="M536.3 1342h-1.72v60.36h-4V1338h5.73zm79.37 0h-10.25v-4h10.25z" stroke="#7ab648" stroke-width=".05" fill="#7ab648"/><path d="M617.67 1342h-2.05v-4h2.05z" fill="#7ab648"/><path d="M617.7 1342.03h-2.1v-4.06h2.1zm-2.06-4v3.94h2v-3.94z" stroke="#7ab648" stroke-width=".05" fill="#7ab648"/><path d="M532.58 1418.62l-4.64-14.26h9.27z" fill="#7ab648"/><path d="M532.58 1425.1l-7.4-22.74H540zm-1.9-18.74l1.9 5.8 1.88-5.8z" stroke="#7ab648" stroke-width=".05" fill="#7ab648"/><use xlink:href="#Q" transform="matrix(1,0,0,1,536.310599365407,1324) translate(0.005000000000002558 21.333333333333336)"/><path d="M874.9 1408.5h-4V1342h-12.3v-4h16.3zm-91.23-66.5v-4h20.2v4z" stroke="#c92d39" stroke-width=".05" fill="#c92d39"/><path d="M783.72 1342h-2.05v-4h2.05z" fill="#c92d39"/><path d="M783.75 1342.03h-2.1v-4.06h2.1zm-2.06-4v3.94h2v-3.94z" stroke="#c92d39" stroke-width=".05" fill="#c92d39"/><path d="M872.9 1424.76l-4.63-14.26h9.27z" fill="#c92d39"/><path d="M872.9 1431.24l-7.38-22.74h14.77zm-1.88-18.74l1.88 5.8 1.9-5.8z" stroke="#c92d39" stroke-width=".05" fill="#c92d39"/><use xlink:href="#J" transform="matrix(1,0,0,1,803.8678659419629,1324) translate(0.004999999999999005 21.333333333333336)"/><g filter="url(#G)"><path d="M819.34 1439.92l160-19.92v120h-160z" stroke="#3d4752" stroke-width="4" fill="#99d5ca"/><use xlink:href="#H" transform="matrix(1,0,0,1,824.3388429752066,1445) translate(35.77777777777777 50.333333333333336)"/><use xlink:href="#P" transform="matrix(1,0,0,1,824.3388429752066,1445) translate(99.4074074074074 50.333333333333336)"/></g><path d="M918.78 1342h-2.7v61.37h-4V1338h6.7zm77.22 0h-8.1v-4h8.1z" stroke="#7ab648" stroke-width=".05" fill="#7ab648"/><path d="M998 1342h-2.05v-4H998z" fill="#7ab648"/><path d="M998.02 1342.03h-2.1v-4.06h2.1zm-2.05-4v3.94h2v-3.94z" stroke="#7ab648" stroke-width=".05" fill="#7ab648"/><path d="M914.1 1419.64l-4.65-14.27h9.27z" fill="#7ab648"/><path d="M914.1 1426.1l-7.4-22.73h14.78zm-1.9-18.73l1.9 5.8 1.87-5.8z" stroke="#7ab648" stroke-width=".05" fill="#7ab648"/><use xlink:href="#Q" transform="matrix(1,0,0,1,918.7777776553535,1324) translate(0.005000000000002558 21.333333333333336)"/><path d="M685.58 1527.2h-4V1482h-14.02v-4h18.02zm-91.9-45.2v-4h19.14v4z" stroke="#c92d39" stroke-width=".05" fill="#c92d39"/><path d="M593.72 1482h-2.05v-4h2.05z" fill="#c92d39"/><path d="M593.75 1482.03h-2.1v-4.06h2.1zm-2.06-4v3.94h2v-3.94z" stroke="#c92d39" stroke-width=".05" fill="#c92d39"/><path d="M683.58 1543.48l-4.64-14.27h9.27z" fill="#c92d39"/><path d="M683.58 1549.95l-7.4-22.74H691zm-1.88-18.74l1.88 5.8 1.88-5.8z" stroke="#c92d39" stroke-width=".05" fill="#c92d39"/><use xlink:href="#J" transform="matrix(1,0,0,1,612.8212690122228,1464) translate(0.004999999999999005 21.333333333333336)"/><g filter="url(#G)"><path d="M619.67 1559.92l160-19.92v120h-160z" stroke="#3d4752" stroke-width="4" fill="#b2d6ef"/><use xlink:href="#H" transform="matrix(1,0,0,1,624.6694214876034,1565) translate(35.77777777777777 50.333333333333336)"/><use xlink:href="#R" transform="matrix(1,0,0,1,624.6694214876034,1565) translate(99.4074074074074 50.333333333333336)"/></g><path d="M733.44 1482h-10.6v40.57h-4V1478h14.6zm81.9 0h-12.78v-4h12.78z" stroke="#7ab648" stroke-width=".05" fill="#7ab648"/><path d="M817.34 1482h-2.05v-4h2.04z" fill="#7ab648"/><path d="M817.36 1482.03h-2.1v-4.06h2.1zm-2.05-4v3.94h2v-3.94z" stroke="#7ab648" stroke-width=".05" fill="#7ab648"/><path d="M720.83 1538.84l-4.64-14.27h9.26z" fill="#7ab648"/><path d="M720.83 1545.3l-7.4-22.73h14.8zm-1.88-18.73l1.88 5.8 1.88-5.8z" stroke="#7ab648" stroke-width=".05" fill="#7ab648"/><use xlink:href="#Q" transform="matrix(1,0,0,1,733.4444442874509,1464) translate(0.005000000000002558 21.333333333333336)"/><path d="M1199 1523.9h-4V1482h-85.32v-4h89.3zM983.33 1482v-4h71.6v4z" stroke="#c92d39" stroke-width=".05" fill="#c92d39"/><path d="M983.4 1482h-2.06v-4h2.05z" fill="#c92d39"/><path d="M983.4 1482.03h-2.1v-4.06h2.12zm-2.04-4v3.94h2v-3.94z" stroke="#c92d39" stroke-width=".05" fill="#c92d39"/><path d="M1197 1540.18l-4.65-14.27h9.27z" fill="#c92d39"/><path d="M1197 1546.65l-7.4-22.74h14.78zm-1.9-18.74l1.9 5.8 1.87-5.8z" stroke="#c92d39" stroke-width=".05" fill="#c92d39"/><use xlink:href="#J" transform="matrix(1,0,0,1,1054.9360788542472,1464) translate(0.004999999999999005 21.333333333333336)"/><path d="M980.63 1602H783.67v-4h196.96zm154.63 0h-99.9v-4h99.9z" stroke="#c92d39" stroke-width=".05" fill="#c92d39"/><path d="M783.72 1602h-2.05v-4h2.05z" fill="#c92d39"/><path d="M783.75 1602.03h-2.1v-4.06h2.1zm-2.06-4v3.94h2v-3.94z" stroke="#c92d39" stroke-width=".05" fill="#c92d39"/><path d="M1151.53 1600l-14.27 4.63v-9.27z" fill="#c92d39"/><path d="M1158 1600l-22.74 7.4v-14.8zm-18.74 1.88l5.8-1.88-5.8-1.88z" stroke="#c92d39" stroke-width=".05" fill="#c92d39"/><use xlink:href="#J" transform="matrix(1,0,0,1,980.6296298616202,1584) translate(0.004999999999999005 21.333333333333336)"/><path d="M328.1 1482h-27.86v60.23H191.56v-4h104.69V1478h31.86zm97.57 0h-28.45v-4h28.45z" stroke="#7ab648" stroke-width=".05" fill="#7ab648"/><path d="M427.67 1482h-2.05v-4h2.05z" fill="#7ab648"/><path d="M427.7 1482.03h-2.1v-4.06h2.1zm-2.06-4v3.94h2v-3.94z" stroke="#7ab648" stroke-width=".05" fill="#7ab648"/><path d="M189.56 1544.87l-14.27-4.63 14.26-4.64z" fill="#7ab648"/><path d="M191.56 1547.62l-22.74-7.38 22.74-7.4zm-9.8-7.38l5.8 1.88v-3.77z" stroke="#7ab648" stroke-width=".05" fill="#7ab648"/><use xlink:href="#Q" transform="matrix(1,0,0,1,328.11111113892144,1464) translate(0.005000000000002558 21.333333333333336)"/><path d="M377.5 1602H229.2v-4h148.3zm238.17 0H446.62v-4h169.05z" stroke="#7ab648" stroke-width=".05" fill="#7ab648"/><path d="M617.67 1602h-2.05v-4h2.05z" fill="#7ab648"/><path d="M617.7 1602.03h-2.1v-4.06h2.1zm-2.06-4v3.94h2v-3.94z" stroke="#7ab648" stroke-width=".05" fill="#7ab648"/><path d="M227.2 1604.63l-14.27-4.63 14.26-4.63z" fill="#7ab648"/><path d="M229.2 1607.4l-22.74-7.4 22.73-7.4zm-9.8-7.4l5.8 1.88v-3.76z" stroke="#7ab648" stroke-width=".05" fill="#7ab648"/><use xlink:href="#Q" transform="matrix(1,0,0,1,377.507528783743,1584) translate(0.005000000000002558 21.333333333333336)"/><path d="M699.67 142" stroke="#494949" stroke-width="4" fill="none"/><path stroke="#494949" stroke-width=".05" fill="#494949"/><path stroke="#494949" stroke-width=".05" fill="#494949"/><path d="M699.67 144v12" stroke="#494949" stroke-width="4" fill="none"/><path d="M701.67 144.05h-4V142h4zM701.67 158h-4v-2.05h4z" stroke="#494949" stroke-width=".05" fill="#494949"/><path d="M699.67 284v12" stroke="#494949" stroke-width="4" fill="none"/><path d="M701.67 284.05h-4V282h4zM701.67 298h-4v-2.05h4z" stroke="#494949" stroke-width=".05" fill="#494949"/><path d="M699.67 424v18.2" stroke="#494949" stroke-width="4" fill="none"/><path d="M701.67 424.05h-4V422h4zM701.67 444.2h-4v-2.05h4z" stroke="#494949" stroke-width=".05" fill="#494949"/><path d="M699.67 638" stroke="#494949" stroke-width="4" fill="none"/><path stroke="#494949" stroke-width=".05" fill="#494949"/><path stroke="#494949" stroke-width=".05" fill="#494949"/><path d="M699.67 617.8V636" stroke="#494949" stroke-width="4" fill="none"/><path d="M701.67 617.85h-4v-2.05h4zM701.67 638h-4v-2.05h4z" stroke="#494949" stroke-width=".05" fill="#494949"/><defs><path fill="#3d4752" d="M194 0L95-120 63-95V0H30v-248h33v124l119-124h40L117-140 236 0h-42" id="U"/><path fill="#3d4752" d="M30 0v-248h187v28H63v79h144v27H63v87h162V0H30" id="V"/><path fill="#3d4752" d="M137-103V0h-34v-103L8-248h37l75 118 75-118h37" id="W"/><g id="b"><use transform="matrix(0.07407407407407408,0,0,0.07407407407407408,0,0)" xlink:href="#U"/><use transform="matrix(0.07407407407407408,0,0,0.07407407407407408,17.77777777777778,0)" xlink:href="#V"/><use transform="matrix(0.07407407407407408,0,0,0.07407407407407408,35.55555555555556,0)" xlink:href="#W"/></g><path fill="#3d4752" d="M140-251c81 0 123 46 123 126C263-46 219 4 140 4 59 4 17-45 17-125s42-126 123-126zm0 227c63 0 89-41 89-101s-29-99-89-99c-61 0-89 39-89 99S79-25 140-24" id="X"/><path fill="#3d4752" d="M190 0L58-211 59 0H30v-248h39L202-35l-2-213h31V0h-41" id="Y"/><g id="c"><use transform="matrix(0.07407407407407408,0,0,0.07407407407407408,0,0)" xlink:href="#X"/><use transform="matrix(0.07407407407407408,0,0,0.07407407407407408,20.740740740740744,0)" xlink:href="#Y"/></g><filter id="a" filterUnits="objectBoundingBox" x="-.06" y="-.05" width="1.11" height="1.25"><feOffset result="offOut" in="SourceAlpha" dy="6"/><feGaussianBlur result="blurOut" in="offOut" stdDeviation="5"/><feColorMatrix result="colorOut" in="blurOut" values="0 0 0 0 0 0 0 0 0 0 0 0 0 0 0 0 0 0 0.16862745098039217 0"/><feBlend in="SourceGraphic" in2="colorOut"/></filter><path fill="#3d4752" d="M185-189c-5-48-123-54-124 2 14 75 158 14 163 119 3 78-121 87-175 55-17-10-28-26-33-46l33-7c5 56 141 63 141-1 0-78-155-14-162-118-5-82 145-84 179-34 5 7 8 16 11 25" id="Z"/><path fill="#3d4752" d="M127-220V0H93v-220H8v-28h204v28h-85" id="aa"/><g id="e"><use transform="matrix(0.07407407407407408,0,0,0.07407407407407408,0,0)" xlink:href="#Z"/><use transform="matrix(0.07407407407407408,0,0,0.07407407407407408,17.77777777777778,0)" xlink:href="#V"/><use transform="matrix(0.07407407407407408,0,0,0.07407407407407408,35.55555555555556,0)" xlink:href="#aa"/></g><path fill="#3d4752" d="M266 0h-40l-56-210L115 0H75L2-248h35L96-30l15-64 43-154h32l59 218 59-218h35" id="ab"/><g id="f"><use transform="matrix(0.07407407407407408,0,0,0.07407407407407408,0,0)" xlink:href="#Y"/><use transform="matrix(0.07407407407407408,0,0,0.07407407407407408,19.185185185185187,0)" xlink:href="#V"/><use transform="matrix(0.07407407407407408,0,0,0.07407407407407408,36.96296296296296,0)" xlink:href="#ab"/></g><path fill="#3d4752" d="M30-248c87 1 191-15 191 75 0 78-77 80-158 76V0H30v-248zm33 125c57 0 124 11 124-50 0-59-68-47-124-48v98" id="ac"/><path fill="#3d4752" d="M33 0v-248h34V0H33" id="ad"/><g id="g"><use transform="matrix(0.07407407407407408,0,0,0.07407407407407408,0,0)" xlink:href="#ac"/><use transform="matrix(0.07407407407407408,0,0,0.07407407407407408,17.77777777777778,0)" xlink:href="#ad"/><use transform="matrix(0.07407407407407408,0,0,0.07407407407407408,25.185185185185187,0)" xlink:href="#Y"/></g><path fill="#3d4752" d="M232-93c-1 65-40 97-104 97C67 4 28-28 28-90v-158h33c8 89-33 224 67 224 102 0 64-133 71-224h33v155" id="ae"/><path fill="#3d4752" d="M240 0l2-218c-23 76-54 145-80 218h-23L58-218 59 0H30v-248h44l77 211c21-75 51-140 76-211h43V0h-30" id="af"/><path fill="#3d4752" d="M160-131c35 5 61 23 61 61C221 17 115-2 30 0v-248c76 3 177-17 177 60 0 33-19 50-47 57zm-97-11c50-1 110 9 110-42 0-47-63-36-110-37v79zm0 115c55-2 124 14 124-45 0-56-70-42-124-44v89" id="ag"/><path fill="#3d4752" d="M233-177c-1 41-23 64-60 70L243 0h-38l-65-103H63V0H30v-248c88 3 205-21 203 71zM63-129c60-2 137 13 137-47 0-61-80-42-137-45v92" id="ah"/><g id="h"><use transform="matrix(0.07407407407407408,0,0,0.07407407407407408,0,0)" xlink:href="#Y"/><use transform="matrix(0.07407407407407408,0,0,0.07407407407407408,19.185185185185187,0)" xlink:href="#ae"/><use transform="matrix(0.07407407407407408,0,0,0.07407407407407408,38.370370370370374,0)" xlink:href="#af"/><use transform="matrix(0.07407407407407408,0,0,0.07407407407407408,60.518518518518526,0)" xlink:href="#ag"/><use transform="matrix(0.07407407407407408,0,0,0.07407407407407408,78.2962962962963,0)" xlink:href="#V"/><use transform="matrix(0.07407407407407408,0,0,0.07407407407407408,96.07407407407408,0)" xlink:href="#ah"/></g><filter id="d" filterUnits="objectBoundingBox" x="-.04" y="-.03" width="1.08" height="1.17"><feOffset result="offOut" in="SourceAlpha" dy="6"/><feGaussianBlur result="blurOut" in="offOut" stdDeviation="5"/><feColorMatrix result="colorOut" in="blurOut" values="0 0 0 0 0 0 0 0 0 0 0 0 0 0 0 0 0 0 0.16862745098039217 0"/><feBlend in="SourceGraphic" in2="colorOut"/></filter><path fill="#3d4752" d="M212-179c-10-28-35-45-73-45-59 0-87 40-87 99 0 60 29 101 89 101 43 0 62-24 78-52l27 14C228-24 195 4 139 4 59 4 22-46 18-125c-6-104 99-153 187-111 19 9 31 26 39 46" id="ai"/><g id="i"><use transform="matrix(0.07407407407407408,0,0,0.07407407407407408,0,0)" xlink:href="#ai"/><use transform="matrix(0.07407407407407408,0,0,0.07407407407407408,19.185185185185187,0)" xlink:href="#ae"/><use transform="matrix(0.07407407407407408,0,0,0.07407407407407408,38.370370370370374,0)" xlink:href="#aa"/></g><g id="j"><use transform="matrix(0.07407407407407408,0,0,0.07407407407407408,0,0)" xlink:href="#ab"/><use transform="matrix(0.07407407407407408,0,0,0.07407407407407408,25.111111111111114,0)" xlink:href="#ad"/><use transform="matrix(0.07407407407407408,0,0,0.07407407407407408,32.51851851851852,0)" xlink:href="#ah"/><use transform="matrix(0.07407407407407408,0,0,0.07407407407407408,51.70370370370371,0)" xlink:href="#V"/></g><g id="k"><use transform="matrix(0.07407407407407408,0,0,0.07407407407407408,0,0)" xlink:href="#Y"/><use transform="matrix(0.07407407407407408,0,0,0.07407407407407408,19.185185185185187,0)" xlink:href="#ae"/><use transform="matrix(0.07407407407407408,0,0,0.07407407407407408,38.370370370370374,0)" xlink:href="#af"/><use transform="matrix(0.07407407407407408,0,0,0.07407407407407408,60.518518518518526,0)" xlink:href="#ag"/><use transform="matrix(0.07407407407407408,0,0,0.07407407407407408,78.2962962962963,0)" xlink:href="#V"/><use transform="matrix(0.07407407407407408,0,0,0.07407407407407408,96.07407407407408,0)" xlink:href="#ah"/></g><path fill="#3d4752" d="M27 0v-27h64v-190l-56 39v-29l58-41h29v221h61V0H27" id="aj"/><path fill="#3d4752" d="M16-82v-28h88v28H16" id="ak"/><path fill="#3d4752" d="M110-160c48 1 74 30 74 79 0 53-28 85-80 85-65 0-83-55-86-122-5-90 50-162 133-122 14 7 22 21 27 39l-31 6c-5-40-67-38-82-6-9 19-15 44-15 74 11-20 30-34 60-33zm-7 138c34 0 49-23 49-58s-16-56-50-56c-29 0-50 16-49 49 1 36 15 65 50 65" id="al"/><g id="l"><use transform="matrix(0.07407407407407408,0,0,0.07407407407407408,0,0)" xlink:href="#aj"/><use transform="matrix(0.07407407407407408,0,0,0.07407407407407408,14.814814814814817,0)" xlink:href="#ak"/><use transform="matrix(0.07407407407407408,0,0,0.07407407407407408,23.629629629629633,0)" xlink:href="#al"/></g><g id="n"><use transform="matrix(0.07407407407407408,0,0,0.07407407407407408,0,0)" xlink:href="#V"/><use transform="matrix(0.07407407407407408,0,0,0.07407407407407408,17.77777777777778,0)" xlink:href="#Y"/><use transform="matrix(0.07407407407407408,0,0,0.07407407407407408,36.96296296296296,0)" xlink:href="#aa"/><use transform="matrix(0.07407407407407408,0,0,0.07407407407407408,53.18518518518519,0)" xlink:href="#V"/><use transform="matrix(0.07407407407407408,0,0,0.07407407407407408,70.96296296296296,0)" xlink:href="#ah"/></g><path fill="#3d4752" d="M30-248c118-7 216 8 213 122C240-48 200 0 122 0H30v-248zM63-27c89 8 146-16 146-99s-60-101-146-95v194" id="am"/><g id="o"><use transform="matrix(0.07407407407407408,0,0,0.07407407407407408,0,0)" xlink:href="#ai"/><use transform="matrix(0.07407407407407408,0,0,0.07407407407407408,19.185185185185187,0)" xlink:href="#X"/><use transform="matrix(0.07407407407407408,0,0,0.07407407407407408,39.92592592592593,0)" xlink:href="#ae"/><use transform="matrix(0.07407407407407408,0,0,0.07407407407407408,59.11111111111111,0)" xlink:href="#Y"/><use transform="matrix(0.07407407407407408,0,0,0.07407407407407408,78.2962962962963,0)" xlink:href="#aa"/><use transform="matrix(0.07407407407407408,0,0,0.07407407407407408,94.51851851851853,0)" xlink:href="#am"/><use transform="matrix(0.07407407407407408,0,0,0.07407407407407408,113.70370370370372,0)" xlink:href="#X"/><use transform="matrix(0.07407407407407408,0,0,0.07407407407407408,134.44444444444446,0)" xlink:href="#ab"/><use transform="matrix(0.07407407407407408,0,0,0.07407407407407408,159.55555555555557,0)" xlink:href="#Y"/></g><g id="p"><use transform="matrix(0.07407407407407408,0,0,0.07407407407407408,0,0)" xlink:href="#aa"/><use transform="matrix(0.07407407407407408,0,0,0.07407407407407408,16.222222222222225,0)" xlink:href="#ad"/><use transform="matrix(0.07407407407407408,0,0,0.07407407407407408,23.629629629629633,0)" xlink:href="#af"/><use transform="matrix(0.07407407407407408,0,0,0.07407407407407408,45.777777777777786,0)" xlink:href="#V"/><use transform="matrix(0.07407407407407408,0,0,0.07407407407407408,63.555555555555564,0)" xlink:href="#ah"/></g><g id="q"><use transform="matrix(0.07407407407407408,0,0,0.07407407407407408,0,0)" xlink:href="#ad"/><use transform="matrix(0.07407407407407408,0,0,0.07407407407407408,7.407407407407408,0)" xlink:href="#Y"/></g><g id="r"><use transform="matrix(0.07407407407407408,0,0,0.07407407407407408,0,0)" xlink:href="#af"/><use transform="matrix(0.07407407407407408,0,0,0.07407407407407408,22.148148148148152,0)" xlink:href="#ad"/><use transform="matrix(0.07407407407407408,0,0,0.07407407407407408,29.55555555555556,0)" xlink:href="#Y"/><use transform="matrix(0.07407407407407408,0,0,0.07407407407407408,48.74074074074075,0)" xlink:href="#ae"/><use transform="matrix(0.07407407407407408,0,0,0.07407407407407408,67.92592592592594,0)" xlink:href="#aa"/><use transform="matrix(0.07407407407407408,0,0,0.07407407407407408,84.14814814814815,0)" xlink:href="#V"/><use transform="matrix(0.07407407407407408,0,0,0.07407407407407408,101.92592592592595,0)" xlink:href="#Z"/></g><filter id="m" filterUnits="objectBoundingBox" x="-.04" y="-.02" width="1.08" height="1.12"><feOffset result="offOut" in="SourceAlpha" dy="6"/><feGaussianBlur result="blurOut" in="offOut" stdDeviation="5"/><feColorMatrix result="colorOut" in="blurOut" values="0 0 0 0 0 0 0 0 0 0 0 0 0 0 0 0 0 0 0.16862745098039217 0"/><feBlend in="SourceGraphic" in2="colorOut"/></filter><g id="t"><use transform="matrix(0.07407407407407408,0,0,0.07407407407407408,0,0)" xlink:href="#U"/><use transform="matrix(0.07407407407407408,0,0,0.07407407407407408,17.77777777777778,0)" xlink:href="#V"/><use transform="matrix(0.07407407407407408,0,0,0.07407407407407408,35.55555555555556,0)" xlink:href="#W"/></g><path fill="#3d4752" d="M63-220v92h138v28H63V0H30v-248h175v28H63" id="an"/><g id="u"><use transform="matrix(0.07407407407407408,0,0,0.07407407407407408,0,0)" xlink:href="#X"/><use transform="matrix(0.07407407407407408,0,0,0.07407407407407408,20.740740740740744,0)" xlink:href="#an"/><use transform="matrix(0.07407407407407408,0,0,0.07407407407407408,36.96296296296297,0)" xlink:href="#an"/></g><g id="v"><use transform="matrix(0.07407407407407408,0,0,0.07407407407407408,0,0)" xlink:href="#ah"/><use transform="matrix(0.07407407407407408,0,0,0.07407407407407408,19.185185185185187,0)" xlink:href="#V"/><use transform="matrix(0.07407407407407408,0,0,0.07407407407407408,36.96296296296296,0)" xlink:href="#Z"/><use transform="matrix(0.07407407407407408,0,0,0.07407407407407408,54.74074074074074,0)" xlink:href="#V"/><use transform="matrix(0.07407407407407408,0,0,0.07407407407407408,72.51851851851852,0)" xlink:href="#aa"/><use transform="matrix(0.07407407407407408,0,0,0.07407407407407408,88.74074074074075,0)" xlink:href="#Z"/></g><filter id="s" filterUnits="objectBoundingBox" x="-.06" y="-.05" width="1.13" height="1.25"><feOffset result="offOut" in="SourceAlpha" dy="6"/><feGaussianBlur result="blurOut" in="offOut" stdDeviation="5"/><feColorMatrix result="colorOut" in="blurOut" values="0 0 0 0 0 0 0 0 0 0 0 0 0 0 0 0 0 0 0.16862745098039217 0"/><feBlend in="SourceGraphic" in2="colorOut"/></filter><g id="w"><use transform="matrix(0.07407407407407408,0,0,0.07407407407407408,0,0)" xlink:href="#ac"/><use transform="matrix(0.07407407407407408,0,0,0.07407407407407408,17.77777777777778,0)" xlink:href="#ah"/><use transform="matrix(0.07407407407407408,0,0,0.07407407407407408,36.96296296296296,0)" xlink:href="#V"/><use transform="matrix(0.07407407407407408,0,0,0.07407407407407408,54.74074074074074,0)" xlink:href="#Z"/><use transform="matrix(0.07407407407407408,0,0,0.07407407407407408,72.51851851851852,0)" xlink:href="#Z"/></g><path fill="#3d4752" d="M205 0l-28-72H64L36 0H1l101-248h38L239 0h-34zm-38-99l-47-123c-12 45-31 82-46 123h93" id="ao"/><g id="x"><use transform="matrix(0.07407407407407408,0,0,0.07407407407407408,0,0)" xlink:href="#Z"/><use transform="matrix(0.07407407407407408,0,0,0.07407407407407408,17.77777777777778,0)" xlink:href="#aa"/><use transform="matrix(0.07407407407407408,0,0,0.07407407407407408,32,0)" xlink:href="#ao"/><use transform="matrix(0.07407407407407408,0,0,0.07407407407407408,49.77777777777778,0)" xlink:href="#ah"/><use transform="matrix(0.07407407407407408,0,0,0.07407407407407408,68.44444444444444,0)" xlink:href="#aa"/></g><path fill="#3d4752" d="M143 4C61 4 22-44 18-125c-5-107 100-154 193-111 17 8 29 25 37 43l-32 9c-13-25-37-40-76-40-61 0-88 39-88 99 0 61 29 100 91 101 35 0 62-11 79-27v-45h-74v-28h105v86C228-13 192 4 143 4" id="ap"/><g id="y"><use transform="matrix(0.07407407407407408,0,0,0.07407407407407408,0,0)" xlink:href="#ag"/><use transform="matrix(0.07407407407407408,0,0,0.07407407407407408,17.77777777777778,0)" xlink:href="#V"/><use transform="matrix(0.07407407407407408,0,0,0.07407407407407408,35.55555555555556,0)" xlink:href="#ap"/><use transform="matrix(0.07407407407407408,0,0,0.07407407407407408,56.296296296296305,0)" xlink:href="#ad"/><use transform="matrix(0.07407407407407408,0,0,0.07407407407407408,63.70370370370371,0)" xlink:href="#Y"/><use transform="matrix(0.07407407407407408,0,0,0.07407407407407408,82.8888888888889,0)" xlink:href="#Z"/></g><path fill="#3d4752" d="M24-231v-30h32v30H24zM24 0v-190h32V0H24" id="aq"/><path fill="#3d4752" d="M117-194c89-4 53 116 60 194h-32v-121c0-31-8-49-39-48C34-167 62-67 57 0H25l-1-190h30c1 10-1 24 2 32 11-22 29-35 61-36" id="ar"/><path fill="#3d4752" d="M96-169c-40 0-48 33-48 73s9 75 48 75c24 0 41-14 43-38l32 2c-6 37-31 61-74 61-59 0-76-41-82-99-10-93 101-131 147-64 4 7 5 14 7 22l-32 3c-4-21-16-35-41-35" id="as"/><path fill="#3d4752" d="M24 0v-261h32V0H24" id="at"/><path fill="#3d4752" d="M84 4C-5 8 30-112 23-190h32v120c0 31 7 50 39 49 72-2 45-101 50-169h31l1 190h-30c-1-10 1-25-2-33-11 22-28 36-60 37" id="au"/><path fill="#3d4752" d="M85-194c31 0 48 13 60 33l-1-100h32l1 261h-30c-2-10 0-23-3-31C134-8 116 4 85 4 32 4 16-35 15-94c0-66 23-100 70-100zm9 24c-40 0-46 34-46 75 0 40 6 74 45 74 42 0 51-32 51-76 0-42-9-74-50-73" id="av"/><path fill="#3d4752" d="M100-194c63 0 86 42 84 106H49c0 40 14 67 53 68 26 1 43-12 49-29l28 8c-11 28-37 45-77 45C44 4 14-33 15-96c1-61 26-98 85-98zm52 81c6-60-76-77-97-28-3 7-6 17-6 28h103" id="aw"/><g id="A"><use transform="matrix(0.07407407407407408,0,0,0.07407407407407408,0,0)" xlink:href="#aq"/><use transform="matrix(0.07407407407407408,0,0,0.07407407407407408,5.851851851851853,0)" xlink:href="#ar"/><use transform="matrix(0.07407407407407408,0,0,0.07407407407407408,20.666666666666668,0)" xlink:href="#as"/><use transform="matrix(0.07407407407407408,0,0,0.07407407407407408,34.00000000000001,0)" xlink:href="#at"/><use transform="matrix(0.07407407407407408,0,0,0.07407407407407408,39.85185185185187,0)" xlink:href="#au"/><use transform="matrix(0.07407407407407408,0,0,0.07407407407407408,54.666666666666686,0)" xlink:href="#av"/><use transform="matrix(0.07407407407407408,0,0,0.07407407407407408,69.4814814814815,0)" xlink:href="#aw"/></g><path fill="#3d4752" d="M141-36C126-15 110 5 73 4 37 3 15-17 15-53c-1-64 63-63 125-63 3-35-9-54-41-54-24 1-41 7-42 31l-33-3c5-37 33-52 76-52 45 0 72 20 72 64v82c-1 20 7 32 28 27v20c-31 9-61-2-59-35zM48-53c0 20 12 33 32 33 41-3 63-29 60-74-43 2-92-5-92 41" id="ax"/><path fill="#3d4752" d="M179-190L93 31C79 59 56 82 12 73V49c39 6 53-20 64-50L1-190h34L92-34l54-156h33" id="ay"/><g id="B"><use transform="matrix(0.07407407407407408,0,0,0.07407407407407408,0,0)" xlink:href="#av"/><use transform="matrix(0.07407407407407408,0,0,0.07407407407407408,14.814814814814817,0)" xlink:href="#aw"/><use transform="matrix(0.07407407407407408,0,0,0.07407407407407408,29.629629629629633,0)" xlink:href="#at"/><use transform="matrix(0.07407407407407408,0,0,0.07407407407407408,35.48148148148149,0)" xlink:href="#ax"/><use transform="matrix(0.07407407407407408,0,0,0.07407407407407408,50.296296296296305,0)" xlink:href="#ay"/></g><path fill="#3d4752" d="M59-47c-2 24 18 29 38 22v24C64 9 27 4 27-40v-127H5v-23h24l9-43h21v43h35v23H59v120" id="az"/><path fill="#3d4752" d="M210-169c-67 3-38 105-44 169h-31v-121c0-29-5-50-35-48C34-165 62-65 56 0H25l-1-190h30c1 10-1 24 2 32 10-44 99-50 107 0 11-21 27-35 58-36 85-2 47 119 55 194h-31v-121c0-29-5-49-35-48" id="aA"/><g id="C"><use transform="matrix(0.07407407407407408,0,0,0.07407407407407408,0,0)" xlink:href="#az"/><use transform="matrix(0.07407407407407408,0,0,0.07407407407407408,7.407407407407408,0)" xlink:href="#aq"/><use transform="matrix(0.07407407407407408,0,0,0.07407407407407408,13.259259259259261,0)" xlink:href="#aA"/><use transform="matrix(0.07407407407407408,0,0,0.07407407407407408,35.40740740740741,0)" xlink:href="#aw"/></g><g id="D"><use transform="matrix(0.07407407407407408,0,0,0.07407407407407408,0,0)" xlink:href="#au"/><use transform="matrix(0.07407407407407408,0,0,0.07407407407407408,14.814814814814817,0)" xlink:href="#ar"/><use transform="matrix(0.07407407407407408,0,0,0.07407407407407408,29.629629629629633,0)" xlink:href="#az"/><use transform="matrix(0.07407407407407408,0,0,0.07407407407407408,37.03703703703704,0)" xlink:href="#aq"/><use transform="matrix(0.07407407407407408,0,0,0.07407407407407408,42.88888888888889,0)" xlink:href="#at"/></g><path fill="#3d4752" d="M177-190C167-65 218 103 67 71c-23-6-38-20-44-43l32-5c15 47 100 32 89-28v-30C133-14 115 1 83 1 29 1 15-40 15-95c0-56 16-97 71-98 29-1 48 16 59 35 1-10 0-23 2-32h30zM94-22c36 0 50-32 50-73 0-42-14-75-50-75-39 0-46 34-46 75s6 73 46 73" id="aB"/><g id="E"><use transform="matrix(0.07407407407407408,0,0,0.07407407407407408,0,0)" xlink:href="#aB"/><use transform="matrix(0.07407407407407408,0,0,0.07407407407407408,14.814814814814817,0)" xlink:href="#ax"/><use transform="matrix(0.07407407407407408,0,0,0.07407407407407408,29.629629629629633,0)" xlink:href="#aA"/><use transform="matrix(0.07407407407407408,0,0,0.07407407407407408,51.777777777777786,0)" xlink:href="#aw"/></g><path fill="#3d4752" d="M135-143c-3-34-86-38-87 0 15 53 115 12 119 90S17 21 10-45l28-5c4 36 97 45 98 0-10-56-113-15-118-90-4-57 82-63 122-42 12 7 21 19 24 35" id="aC"/><path fill="#3d4752" d="M114-163C36-179 61-72 57 0H25l-1-190h30c1 12-1 29 2 39 6-27 23-49 58-41v29" id="aD"/><g id="F"><use transform="matrix(0.07407407407407408,0,0,0.07407407407407408,0,0)" xlink:href="#aC"/><use transform="matrix(0.07407407407407408,0,0,0.07407407407407408,13.333333333333336,0)" xlink:href="#az"/><use transform="matrix(0.07407407407407408,0,0,0.07407407407407408,20.740740740740744,0)" xlink:href="#ax"/><use transform="matrix(0.07407407407407408,0,0,0.07407407407407408,35.55555555555556,0)" xlink:href="#aD"/><use transform="matrix(0.07407407407407408,0,0,0.07407407407407408,44.370370370370374,0)" xlink:href="#az"/><use transform="matrix(0.07407407407407408,0,0,0.07407407407407408,51.777777777777786,0)" xlink:href="#aC"/></g><filter id="z" filterUnits="objectBoundingBox" x="-.04" y="-.02" width="1.08" height="1.1"><feOffset result="offOut" in="SourceAlpha" dy="6"/><feGaussianBlur result="blurOut" in="offOut" stdDeviation="5"/><feColorMatrix result="colorOut" in="blurOut" values="0 0 0 0 0 0 0 0 0 0 0 0 0 0 0 0 0 0 0.16862745098039217 0"/><feBlend in="SourceGraphic" in2="colorOut"/></filter><path fill="#3d4752" d="M30 0v-248h33v221h125V0H30" id="aE"/><g id="H"><use transform="matrix(0.07407407407407408,0,0,0.07407407407407408,0,0)" xlink:href="#aE"/><use transform="matrix(0.07407407407407408,0,0,0.07407407407407408,14.814814814814817,0)" xlink:href="#ad"/><use transform="matrix(0.07407407407407408,0,0,0.07407407407407408,22.222222222222225,0)" xlink:href="#an"/><use transform="matrix(0.07407407407407408,0,0,0.07407407407407408,38.44444444444445,0)" xlink:href="#V"/></g><use transform="matrix(0.07407407407407408,0,0,0.07407407407407408,0,0)" xlink:href="#aj" id="I"/><filter id="G" filterUnits="objectBoundingBox" x="-.06" y="-.03" width="1.13" height="1.17"><feOffset result="offOut" in="SourceAlpha" dy="6"/><feGaussianBlur result="blurOut" in="offOut" stdDeviation="5"/><feColorMatrix result="colorOut" in="blurOut" values="0 0 0 0 0 0 0 0 0 0 0 0 0 0 0 0 0 0 0.16862745098039217 0"/><feBlend in="SourceGraphic" in2="colorOut"/></filter><g id="J"><use transform="matrix(0.07407407407407408,0,0,0.07407407407407408,0,0)" xlink:href="#an"/><use transform="matrix(0.07407407407407408,0,0,0.07407407407407408,14.740740740740744,0)" xlink:href="#ao"/><use transform="matrix(0.07407407407407408,0,0,0.07407407407407408,32.51851851851852,0)" xlink:href="#ad"/><use transform="matrix(0.07407407407407408,0,0,0.07407407407407408,39.925925925925924,0)" xlink:href="#aE"/></g><g id="L"><use transform="matrix(0.07407407407407408,0,0,0.07407407407407408,0,0)" xlink:href="#ac"/><use transform="matrix(0.07407407407407408,0,0,0.07407407407407408,17.77777777777778,0)" xlink:href="#aE"/><use transform="matrix(0.07407407407407408,0,0,0.07407407407407408,32.592592592592595,0)" xlink:href="#ao"/><use transform="matrix(0.07407407407407408,0,0,0.07407407407407408,48.370370370370374,0)" xlink:href="#W"/><use transform="matrix(0.07407407407407408,0,0,0.07407407407407408,66.14814814814815,0)" xlink:href="#V"/><use transform="matrix(0.07407407407407408,0,0,0.07407407407407408,83.92592592592592,0)" xlink:href="#ah"/></g><g id="M"><use transform="matrix(0.07407407407407408,0,0,0.07407407407407408,0,0)" xlink:href="#Z"/><use transform="matrix(0.07407407407407408,0,0,0.07407407407407408,17.77777777777778,0)" xlink:href="#V"/><use transform="matrix(0.07407407407407408,0,0,0.07407407407407408,35.55555555555556,0)" xlink:href="#aE"/><use transform="matrix(0.07407407407407408,0,0,0.07407407407407408,50.370370370370374,0)" xlink:href="#V"/><use transform="matrix(0.07407407407407408,0,0,0.07407407407407408,68.14814814814815,0)" xlink:href="#ai"/><use transform="matrix(0.07407407407407408,0,0,0.07407407407407408,87.33333333333334,0)" xlink:href="#aa"/><use transform="matrix(0.07407407407407408,0,0,0.07407407407407408,103.55555555555557,0)" xlink:href="#Z"/></g><path fill="#3d4752" d="M197 0v-115H63V0H30v-248h33v105h134v-105h34V0h-34" id="aF"/><g id="N"><use transform="matrix(0.07407407407407408,0,0,0.07407407407407408,0,0)" xlink:href="#ai"/><use transform="matrix(0.07407407407407408,0,0,0.07407407407407408,19.185185185185187,0)" xlink:href="#aF"/><use transform="matrix(0.07407407407407408,0,0,0.07407407407407408,38.370370370370374,0)" xlink:href="#ao"/><use transform="matrix(0.07407407407407408,0,0,0.07407407407407408,56.14814814814815,0)" xlink:href="#aE"/><use transform="matrix(0.07407407407407408,0,0,0.07407407407407408,70.96296296296296,0)" xlink:href="#aE"/><use transform="matrix(0.07407407407407408,0,0,0.07407407407407408,85.77777777777777,0)" xlink:href="#V"/><use transform="matrix(0.07407407407407408,0,0,0.07407407407407408,103.55555555555553,0)" xlink:href="#Y"/><use transform="matrix(0.07407407407407408,0,0,0.07407407407407408,122.74074074074073,0)" xlink:href="#ap"/><use transform="matrix(0.07407407407407408,0,0,0.07407407407407408,143.48148148148147,0)" xlink:href="#V"/></g><filter id="K" filterUnits="objectBoundingBox" x="-.03" y="-.02" width="1.06" height="1.09"><feOffset result="offOut" in="SourceAlpha" dy="6"/><feGaussianBlur result="blurOut" in="offOut" stdDeviation="5"/><feColorMatrix result="colorOut" in="blurOut" values="0 0 0 0 0 0 0 0 0 0 0 0 0 0 0 0 0 0 0.16862745098039217 0"/><feBlend in="SourceGraphic" in2="colorOut"/></filter><g id="O"><use transform="matrix(0.07407407407407408,0,0,0.07407407407407408,0,0)" xlink:href="#ag"/><use transform="matrix(0.07407407407407408,0,0,0.07407407407407408,17.77777777777778,0)" xlink:href="#X"/><use transform="matrix(0.07407407407407408,0,0,0.07407407407407408,38.51851851851851,0)" xlink:href="#X"/><use transform="matrix(0.07407407407407408,0,0,0.07407407407407408,59.25925925925927,0)" xlink:href="#af"/></g><path fill="#3d4752" d="M101-251c82-7 93 87 43 132L82-64C71-53 59-42 53-27h129V0H18c2-99 128-94 128-182 0-28-16-43-45-43s-46 15-49 41l-32-3c6-41 34-60 81-64" id="aG"/><use transform="matrix(0.07407407407407408,0,0,0.07407407407407408,0,0)" xlink:href="#aG" id="P"/><g id="Q"><use transform="matrix(0.07407407407407408,0,0,0.07407407407407408,0,0)" xlink:href="#ac"/><use transform="matrix(0.07407407407407408,0,0,0.07407407407407408,15.777777777777779,0)" xlink:href="#ao"/><use transform="matrix(0.07407407407407408,0,0,0.07407407407407408,33.55555555555556,0)" xlink:href="#Z"/><use transform="matrix(0.07407407407407408,0,0,0.07407407407407408,51.33333333333333,0)" xlink:href="#Z"/></g><path fill="#3d4752" d="M126-127c33 6 58 20 58 59 0 88-139 92-164 29-3-8-5-16-6-25l32-3c6 27 21 44 54 44 32 0 52-15 52-46 0-38-36-46-79-43v-28c39 1 72-4 72-42 0-27-17-43-46-43-28 0-47 15-49 41l-32-3c6-42 35-63 81-64 48-1 79 21 79 65 0 36-21 52-52 59" id="aH"/><use transform="matrix(0.07407407407407408,0,0,0.07407407407407408,0,0)" xlink:href="#aH" id="R"/><g id="T"><use transform="matrix(0.07407407407407408,0,0,0.07407407407407408,0,0)" xlink:href="#ab"/><use transform="matrix(0.07407407407407408,0,0,0.07407407407407408,25.111111111111114,0)" xlink:href="#ad"/><use transform="matrix(0.07407407407407408,0,0,0.07407407407407408,32.51851851851852,0)" xlink:href="#Y"/></g><filter id="S" filterUnits="objectBoundingBox" x="-.06" y="-.03" width="1.13" height="1.13"><feOffset result="offOut" in="SourceAlpha" dy="6"/><feGaussianBlur result="blurOut" in="offOut" stdDeviation="5"/><feColorMatrix result="colorOut" in="blurOut" values="0 0 0 0 0 0 0 0 0 0 0 0 0 0 0 0 0 0 0.16862745098039217 0"/><feBlend in="SourceGraphic" in2="colorOut"/></filter></defs></g></svg>